<svg xmlns="http://www.w3.org/2000/svg" xmlns:xlink="http://www.w3.org/1999/xlink" width="500" zoomAndPan="magnify" viewBox="0 0 375 374.999991" height="500" preserveAspectRatio="xMidYMid meet" version="1.2"><defs/><g id="d8609ce4f0"><rect x="0" width="375" y="0" height="374.999991" style="fill:#ffffff;fill-opacity:1;stroke:none;"/><rect x="0" width="375" y="0" height="374.999991" style="fill:#000000;fill-opacity:1;stroke:none;"/><g style="fill:#ffffff;fill-opacity:1;"><g transform="translate(124.353011, 231.695787)"><path style="stroke:none" d="M 173.90625 -74.265625 C 174.019531 -74.390625 174.140625 -74.421875 174.265625 -74.359375 C 174.390625 -74.296875 174.453125 -74.203125 174.453125 -74.078125 C 174.578125 -73.960938 174.515625 -73.78125 174.265625 -73.53125 C 163.847656 -69.238281 153.273438 -65.160156 142.546875 -61.296875 C 131.828125 -57.441406 121.078125 -53.800781 110.296875 -50.375 L 122.25 12.6875 C 122.488281 14.519531 121.691406 15.679688 119.859375 16.171875 C 119.484375 16.171875 119.113281 16.140625 118.75 16.078125 C 118.382812 16.023438 118.019531 15.9375 117.65625 15.8125 C 111.03125 11.519531 104.410156 7.289062 97.796875 3.125 C 91.179688 -1.039062 84.503906 -5.144531 77.765625 -9.1875 C 71.753906 -13.113281 65.070312 -17.191406 57.71875 -21.421875 C 50.363281 -25.648438 43.378906 -29.109375 36.765625 -31.796875 C 35.421875 -32.410156 35.050781 -33.332031 35.65625 -34.5625 C 35.78125 -35.175781 36.332031 -35.601562 37.3125 -35.84375 C 48.21875 -37.6875 59.15625 -39.863281 70.125 -42.375 C 81.09375 -44.882812 91.972656 -47.671875 102.765625 -50.734375 L 101.46875 -56.984375 C 97.0625 -77.203125 92.832031 -97.425781 88.78125 -117.65625 C 75.789062 -97.675781 62.097656 -78.003906 47.703125 -58.640625 C 33.304688 -39.273438 17.53125 -21.195312 0.375 -4.40625 C 0.25 -4.289062 0.0625 -4.289062 -0.1875 -4.40625 C -0.3125 -4.65625 -0.3125 -4.84375 -0.1875 -4.96875 C 7.90625 -14.894531 15.78125 -25.003906 23.4375 -35.296875 C 31.09375 -45.585938 38.476562 -56.003906 45.59375 -66.546875 C 52.945312 -76.960938 60.082031 -87.5625 67 -98.34375 C 73.925781 -109.132812 80.695312 -119.921875 87.3125 -130.703125 C 88.050781 -132.046875 89.21875 -132.71875 90.8125 -132.71875 C 91.175781 -132.71875 91.539062 -132.65625 91.90625 -132.53125 C 92.28125 -132.414062 92.648438 -132.234375 93.015625 -131.984375 C 93.992188 -131.367188 94.609375 -130.453125 94.859375 -129.234375 C 97.304688 -117.460938 99.660156 -105.664062 101.921875 -93.84375 C 104.191406 -82.019531 106.429688 -70.164062 108.640625 -58.28125 L 109.75 -52.765625 C 120.65625 -55.941406 131.46875 -59.304688 142.1875 -62.859375 C 152.914062 -66.421875 163.488281 -70.222656 173.90625 -74.265625 Z M 44.671875 -32.90625 C 50.796875 -30.082031 56.828125 -27.015625 62.765625 -23.703125 C 68.710938 -20.398438 74.566406 -17.035156 80.328125 -13.609375 C 86.085938 -10.171875 91.878906 -6.734375 97.703125 -3.296875 C 103.523438 0.128906 109.253906 3.617188 114.890625 7.171875 L 103.3125 -48.15625 C 93.625 -45.21875 83.910156 -42.460938 74.171875 -39.890625 C 64.429688 -37.316406 54.597656 -34.988281 44.671875 -32.90625 Z M 44.671875 -32.90625 "/></g></g><g style="fill:#ffffff;fill-opacity:1;"><g transform="translate(130.984831, 270.297873)"><path style="stroke:none" d="M 9.5625 -0.671875 L 9.546875 0 L 5.40625 0 L 5.328125 -0.421875 C 5.566406 -0.566406 5.945312 -0.75 6.46875 -0.96875 L 5.921875 -2.390625 L 2.78125 -2.390625 L 2.203125 -0.84375 L 3.40625 -0.671875 L 3.390625 0 L -0.1875 0 L -0.265625 -0.421875 C -0.00390625 -0.585938 0.359375 -0.765625 0.828125 -0.953125 L 3.734375 -8.09375 L 3.578125 -8.515625 L 5.3125 -8.984375 L 8.625 -0.796875 Z M 5.53125 -3.390625 L 4.34375 -6.5 L 3.15625 -3.390625 Z M 5.53125 -3.390625 "/></g></g><g style="fill:#ffffff;fill-opacity:1;"><g transform="translate(140.455354, 270.297873)"><path style="stroke:none" d="M 4.765625 -8.765625 C 5.671875 -8.765625 6.453125 -8.554688 7.109375 -8.140625 C 7.765625 -7.722656 8.257812 -7.175781 8.59375 -6.5 C 8.9375 -5.832031 9.109375 -5.132812 9.109375 -4.40625 C 9.109375 -3.113281 8.710938 -2.0625 7.921875 -1.25 C 7.128906 -0.445312 6.070312 -0.03125 4.75 0 L 0.421875 0 L 0.34375 -0.421875 C 0.59375 -0.585938 0.96875 -0.769531 1.46875 -0.96875 L 1.46875 -7.875 L 0.53125 -8 L 0.546875 -8.671875 C 1.804688 -8.734375 3.210938 -8.765625 4.765625 -8.765625 Z M 4.46875 -1.09375 C 5.21875 -1.09375 5.828125 -1.394531 6.296875 -2 C 6.765625 -2.601562 7 -3.378906 7 -4.328125 C 7 -5.046875 6.847656 -5.722656 6.546875 -6.359375 C 6.242188 -6.992188 5.851562 -7.457031 5.375 -7.75 L 3.46875 -7.546875 L 3.46875 -1.25 C 3.820312 -1.144531 4.15625 -1.09375 4.46875 -1.09375 Z M 4.46875 -1.09375 "/></g></g><g style="fill:#ffffff;fill-opacity:1;"><g transform="translate(149.754639, 270.297873)"><path style="stroke:none" d="M 4.671875 -0.671875 L 4.65625 0 L 0.421875 0 L 0.34375 -0.421875 C 0.59375 -0.585938 0.96875 -0.769531 1.46875 -0.96875 L 1.46875 -7.84375 L 0.453125 -8 L 0.46875 -8.671875 L 4.484375 -8.671875 L 4.578125 -8.25 C 4.242188 -8.050781 3.875 -7.867188 3.46875 -7.703125 L 3.46875 -0.84375 Z M 4.671875 -0.671875 "/></g></g><g style="fill:#ffffff;fill-opacity:1;"><g transform="translate(154.786263, 270.297873)"><path style="stroke:none" d="M 8.375 -8.75 L 8.390625 -8.359375 C 8.390625 -7.453125 8.316406 -6.65625 8.171875 -5.96875 L 7.109375 -5.96875 L 6.921875 -7.625 L 5.25 -7.765625 L 5.25 -0.875 L 6.59375 -0.671875 L 6.59375 0 L 1.984375 0 L 1.90625 -0.421875 C 2.101562 -0.546875 2.550781 -0.742188 3.25 -1.015625 L 3.25 -7.765625 L 1.578125 -7.625 L 1.390625 -5.96875 L 0.328125 -5.96875 C 0.179688 -6.65625 0.109375 -7.453125 0.109375 -8.359375 L 0.125 -8.75 L 4.265625 -8.6875 Z M 8.375 -8.75 "/></g></g><g style="fill:#ffffff;fill-opacity:1;"><g transform="translate(163.28207, 270.297873)"><path style="stroke:none" d="M 5.234375 -0.828125 L 6.328125 -0.671875 L 6.3125 0 L 2.296875 0 L 2.21875 -0.421875 C 2.488281 -0.585938 2.84375 -0.765625 3.28125 -0.953125 L 3.28125 -3.25 L 0.796875 -7.875 L -0.03125 -8 L -0.015625 -8.671875 L 3.5 -8.671875 L 3.578125 -8.25 L 2.84375 -7.859375 L 4.078125 -5.53125 L 4.4375 -4.40625 L 4.515625 -4.40625 L 6.25 -7.84375 L 5.265625 -8 L 5.28125 -8.671875 L 8.5 -8.671875 L 8.578125 -8.25 C 8.347656 -8.101562 8 -7.929688 7.53125 -7.734375 L 5.234375 -3.46875 Z M 5.234375 -0.828125 "/></g></g><g style="fill:#ffffff;fill-opacity:1;"><g transform="translate(171.804221, 270.297873)"><path style="stroke:none" d="M 9.5625 -0.671875 L 9.546875 0 L 5.40625 0 L 5.328125 -0.421875 C 5.566406 -0.566406 5.945312 -0.75 6.46875 -0.96875 L 5.921875 -2.390625 L 2.78125 -2.390625 L 2.203125 -0.84375 L 3.40625 -0.671875 L 3.390625 0 L -0.1875 0 L -0.265625 -0.421875 C -0.00390625 -0.585938 0.359375 -0.765625 0.828125 -0.953125 L 3.734375 -8.09375 L 3.578125 -8.515625 L 5.3125 -8.984375 L 8.625 -0.796875 Z M 5.53125 -3.390625 L 4.34375 -6.5 L 3.15625 -3.390625 Z M 5.53125 -3.390625 "/></g></g><g style="fill:#ffffff;fill-opacity:1;"><g transform="translate(181.274744, 270.297873)"><path style="stroke:none" d=""/></g></g><g style="fill:#ffffff;fill-opacity:1;"><g transform="translate(184.765272, 270.297873)"><path style="stroke:none" d="M 7.09375 -2.390625 C 7.09375 -1.609375 6.785156 -0.96875 6.171875 -0.46875 C 5.554688 0.0195312 4.773438 0.265625 3.828125 0.265625 C 3.316406 0.265625 2.765625 0.1875 2.171875 0.03125 C 1.578125 -0.125 1.085938 -0.328125 0.703125 -0.578125 L 0.6875 -0.953125 C 0.6875 -1.679688 0.753906 -2.375 0.890625 -3.03125 L 1.84375 -3.03125 L 2.484375 -1.1875 C 3.035156 -0.925781 3.671875 -0.796875 4.390625 -0.796875 C 4.867188 -1.023438 5.109375 -1.394531 5.109375 -1.90625 C 5.109375 -2.375 4.820312 -2.765625 4.25 -3.078125 L 2.28125 -4.078125 C 1.238281 -4.679688 0.71875 -5.429688 0.71875 -6.328125 C 0.71875 -7.097656 1.03125 -7.722656 1.65625 -8.203125 C 2.289062 -8.691406 3.101562 -8.9375 4.09375 -8.9375 C 4.96875 -8.9375 5.835938 -8.773438 6.703125 -8.453125 C 6.703125 -7.523438 6.628906 -6.722656 6.484375 -6.046875 L 5.421875 -6.046875 L 5.046875 -7.515625 C 4.535156 -7.785156 3.925781 -7.910156 3.21875 -7.890625 C 2.8125 -7.640625 2.609375 -7.285156 2.609375 -6.828125 C 2.609375 -6.554688 2.722656 -6.3125 2.953125 -6.09375 C 3.191406 -5.882812 3.664062 -5.617188 4.375 -5.296875 C 5.09375 -4.972656 5.617188 -4.691406 5.953125 -4.453125 C 6.296875 -4.222656 6.570312 -3.9375 6.78125 -3.59375 C 6.988281 -3.257812 7.09375 -2.859375 7.09375 -2.390625 Z M 7.09375 -2.390625 "/></g></g><g style="fill:#ffffff;fill-opacity:1;"><g transform="translate(192.378568, 270.297873)"><path style="stroke:none" d="M 4.671875 -0.671875 L 4.65625 0 L 0.421875 0 L 0.34375 -0.421875 C 0.59375 -0.585938 0.96875 -0.769531 1.46875 -0.96875 L 1.46875 -7.84375 L 0.453125 -8 L 0.46875 -8.671875 L 4.484375 -8.671875 L 4.578125 -8.25 C 4.242188 -8.050781 3.875 -7.867188 3.46875 -7.703125 L 3.46875 -0.84375 Z M 4.671875 -0.671875 "/></g></g><g style="fill:#ffffff;fill-opacity:1;"><g transform="translate(197.410192, 270.297873)"><path style="stroke:none" d="M 9.84375 -8.25 C 9.570312 -8.082031 9.210938 -7.90625 8.765625 -7.71875 L 8.71875 0 L 6.859375 0.171875 L 2.703125 -6.21875 L 2.890625 -4.59375 L 2.890625 -0.84375 L 4.0625 -0.671875 L 4.046875 0 L 0.421875 0 L 0.34375 -0.421875 C 0.59375 -0.585938 0.96875 -0.769531 1.46875 -0.96875 L 1.46875 -7.84375 L 0.546875 -8 L 0.546875 -8.671875 L 3.484375 -8.671875 L 3.46875 -8.65625 L 7.53125 -2.296875 L 7.34375 -3.96875 L 7.34375 -7.8125 L 6.0625 -8 L 6.078125 -8.671875 L 9.765625 -8.671875 Z M 9.84375 -8.25 "/></g></g><g style="fill:#ffffff;fill-opacity:1;"><g transform="translate(207.60516, 270.297873)"><path style="stroke:none" d="M 7.859375 -3.140625 L 7.859375 -0.90625 L 5.0625 0.265625 L 4.65625 0.28125 C 3.632812 0.28125 2.78125 0.0625 2.09375 -0.375 C 1.414062 -0.8125 0.921875 -1.367188 0.609375 -2.046875 C 0.296875 -2.722656 0.140625 -3.425781 0.140625 -4.15625 C 0.140625 -4.988281 0.328125 -5.769531 0.703125 -6.5 C 1.078125 -7.226562 1.625 -7.816406 2.34375 -8.265625 C 3.070312 -8.710938 3.941406 -8.9375 4.953125 -8.9375 C 6.066406 -8.9375 7.003906 -8.664062 7.765625 -8.125 L 7.765625 -7.859375 C 7.765625 -7.234375 7.671875 -6.578125 7.484375 -5.890625 L 6.28125 -5.890625 L 5.96875 -7.359375 C 5.300781 -7.640625 4.601562 -7.78125 3.875 -7.78125 L 3.5625 -7.765625 C 3.101562 -7.441406 2.757812 -6.984375 2.53125 -6.390625 C 2.300781 -5.796875 2.1875 -5.140625 2.1875 -4.421875 C 2.1875 -3.441406 2.429688 -2.632812 2.921875 -2 C 3.421875 -1.363281 4.070312 -1.039062 4.875 -1.03125 C 5.164062 -1.019531 5.546875 -1.050781 6.015625 -1.125 L 6.015625 -2.953125 C 5.554688 -3.117188 5.117188 -3.316406 4.703125 -3.546875 L 4.78125 -3.984375 L 8.84375 -3.984375 L 8.859375 -3.359375 Z M 7.859375 -3.140625 "/></g></g><g style="fill:#ffffff;fill-opacity:1;"><g transform="translate(216.759552, 270.297873)"><path style="stroke:none" d="M 10.234375 -0.671875 L 10.21875 0 L 5.96875 0 L 5.890625 -0.421875 C 6.140625 -0.585938 6.507812 -0.769531 7 -0.96875 L 7 -3.734375 L 3.46875 -3.734375 L 3.46875 -0.84375 L 4.671875 -0.671875 L 4.65625 0 L 0.421875 0 L 0.34375 -0.421875 C 0.59375 -0.585938 0.96875 -0.769531 1.46875 -0.96875 L 1.46875 -7.84375 L 0.453125 -8 L 0.46875 -8.671875 L 4.484375 -8.671875 L 4.578125 -8.25 C 4.242188 -8.050781 3.875 -7.867188 3.46875 -7.703125 L 3.46875 -4.875 L 7 -4.875 L 7 -7.84375 L 6 -8 L 6 -8.671875 L 10.046875 -8.671875 L 10.125 -8.25 C 9.84375 -8.070312 9.472656 -7.890625 9.015625 -7.703125 L 9.015625 -0.84375 Z M 10.234375 -0.671875 "/></g></g></g></svg>